<mxfile host="Electron" agent="Mozilla/5.0 (Windows NT 10.0; Win64; x64) AppleWebKit/537.36 (KHTML, like Gecko) draw.io/26.0.16 Chrome/132.0.6834.196 Electron/34.2.0 Safari/537.36" version="26.0.16">
  <diagram name="Page-1" id="FtNA_kAWOvf62v4MWtAJ">
    <mxGraphModel dx="1036" dy="1902" grid="1" gridSize="10" guides="1" tooltips="1" connect="1" arrows="1" fold="1" page="1" pageScale="1" pageWidth="1920" pageHeight="1200" math="0" shadow="0">
      <root>
        <mxCell id="0" />
        <mxCell id="1" parent="0" />
        <mxCell id="GAJAMWU1O866HQGjR93X-9" style="rounded=0;orthogonalLoop=1;jettySize=auto;html=1;entryX=0;entryY=0.5;entryDx=0;entryDy=0;endArrow=none;startFill=0;" parent="1" source="GAJAMWU1O866HQGjR93X-1" target="GAJAMWU1O866HQGjR93X-7" edge="1">
          <mxGeometry relative="1" as="geometry" />
        </mxCell>
        <mxCell id="3jMCsiWTbbFfI4Y1M0tF-7" style="rounded=0;orthogonalLoop=1;jettySize=auto;html=1;entryX=0;entryY=0.5;entryDx=0;entryDy=0;endArrow=none;startFill=0;" parent="1" source="GAJAMWU1O866HQGjR93X-1" target="3jMCsiWTbbFfI4Y1M0tF-6" edge="1">
          <mxGeometry relative="1" as="geometry" />
        </mxCell>
        <mxCell id="3jMCsiWTbbFfI4Y1M0tF-22" style="rounded=0;orthogonalLoop=1;jettySize=auto;html=1;entryX=0;entryY=0.5;entryDx=0;entryDy=0;endArrow=none;startFill=0;" parent="1" source="GAJAMWU1O866HQGjR93X-1" target="3jMCsiWTbbFfI4Y1M0tF-21" edge="1">
          <mxGeometry relative="1" as="geometry" />
        </mxCell>
        <mxCell id="OBEn0SzSBOZjI5cOXPXD-6" style="rounded=0;orthogonalLoop=1;jettySize=auto;html=1;entryX=0;entryY=0.5;entryDx=0;entryDy=0;endArrow=none;startFill=0;" parent="1" source="GAJAMWU1O866HQGjR93X-1" target="OBEn0SzSBOZjI5cOXPXD-5" edge="1">
          <mxGeometry relative="1" as="geometry" />
        </mxCell>
        <mxCell id="OBEn0SzSBOZjI5cOXPXD-33" style="rounded=0;orthogonalLoop=1;jettySize=auto;html=1;entryX=0;entryY=0.5;entryDx=0;entryDy=0;endArrow=none;startFill=0;" parent="1" source="GAJAMWU1O866HQGjR93X-1" target="OBEn0SzSBOZjI5cOXPXD-32" edge="1">
          <mxGeometry relative="1" as="geometry" />
        </mxCell>
        <mxCell id="GAJAMWU1O866HQGjR93X-1" value="Existing Player" style="shape=umlActor;verticalLabelPosition=bottom;verticalAlign=top;html=1;outlineConnect=0;" parent="1" vertex="1">
          <mxGeometry x="430" y="560" width="30" height="60" as="geometry" />
        </mxCell>
        <mxCell id="GAJAMWU1O866HQGjR93X-5" value="Board Game Site" style="shape=umlFrame;whiteSpace=wrap;html=1;pointerEvents=0;width=80;height=30;" parent="1" vertex="1">
          <mxGeometry x="520" y="-190" width="1150" height="1345" as="geometry" />
        </mxCell>
        <mxCell id="GAJAMWU1O866HQGjR93X-7" value="Sign In" style="ellipse;whiteSpace=wrap;html=1;" parent="1" vertex="1">
          <mxGeometry x="580" y="400" width="150" height="70" as="geometry" />
        </mxCell>
        <mxCell id="3jMCsiWTbbFfI4Y1M0tF-2" value="Forgot Password" style="ellipse;whiteSpace=wrap;html=1;" parent="1" vertex="1">
          <mxGeometry x="750" y="295" width="150" height="70" as="geometry" />
        </mxCell>
        <mxCell id="3jMCsiWTbbFfI4Y1M0tF-4" style="rounded=0;orthogonalLoop=1;jettySize=auto;html=1;entryX=0.5;entryY=0;entryDx=0;entryDy=0;dashed=1;endArrow=open;endFill=0;exitX=0;exitY=0.5;exitDx=0;exitDy=0;" parent="1" source="3jMCsiWTbbFfI4Y1M0tF-2" target="GAJAMWU1O866HQGjR93X-7" edge="1">
          <mxGeometry relative="1" as="geometry">
            <mxPoint x="754" y="338" as="sourcePoint" />
            <mxPoint x="670" y="395" as="targetPoint" />
          </mxGeometry>
        </mxCell>
        <mxCell id="3jMCsiWTbbFfI4Y1M0tF-5" value="&amp;lt;&amp;lt;extend&amp;gt;&amp;gt;" style="edgeLabel;html=1;align=center;verticalAlign=middle;resizable=0;points=[];" parent="3jMCsiWTbbFfI4Y1M0tF-4" connectable="0" vertex="1">
          <mxGeometry x="-0.2421" relative="1" as="geometry">
            <mxPoint x="-39" y="-3" as="offset" />
          </mxGeometry>
        </mxCell>
        <mxCell id="OBEn0SzSBOZjI5cOXPXD-10" style="rounded=0;orthogonalLoop=1;jettySize=auto;html=1;entryX=0;entryY=0;entryDx=0;entryDy=0;endArrow=open;endFill=0;dashed=1;" parent="1" source="3jMCsiWTbbFfI4Y1M0tF-6" target="OBEn0SzSBOZjI5cOXPXD-9" edge="1">
          <mxGeometry relative="1" as="geometry" />
        </mxCell>
        <mxCell id="3jMCsiWTbbFfI4Y1M0tF-6" value="Select Game" style="ellipse;whiteSpace=wrap;html=1;" parent="1" vertex="1">
          <mxGeometry x="590" y="555" width="150" height="70" as="geometry" />
        </mxCell>
        <mxCell id="OBEn0SzSBOZjI5cOXPXD-42" style="edgeStyle=orthogonalEdgeStyle;rounded=0;orthogonalLoop=1;jettySize=auto;html=1;endArrow=none;endFill=0;startFill=0;dashed=1;startArrow=none;" parent="1" source="3jMCsiWTbbFfI4Y1M0tF-9" edge="1">
          <mxGeometry relative="1" as="geometry">
            <mxPoint x="1000" y="590" as="targetPoint" />
            <Array as="points">
              <mxPoint x="1000" y="510" />
              <mxPoint x="1000" y="590" />
            </Array>
          </mxGeometry>
        </mxCell>
        <mxCell id="3jMCsiWTbbFfI4Y1M0tF-9" value="Checkers" style="ellipse;whiteSpace=wrap;html=1;" parent="1" vertex="1">
          <mxGeometry x="817.5" y="475" width="140" height="70" as="geometry" />
        </mxCell>
        <mxCell id="3jMCsiWTbbFfI4Y1M0tF-10" style="edgeStyle=orthogonalEdgeStyle;rounded=0;orthogonalLoop=1;jettySize=auto;html=1;endArrow=block;endFill=0;" parent="1" source="3jMCsiWTbbFfI4Y1M0tF-11" edge="1">
          <mxGeometry relative="1" as="geometry">
            <mxPoint x="740" y="590" as="targetPoint" />
          </mxGeometry>
        </mxCell>
        <mxCell id="3jMCsiWTbbFfI4Y1M0tF-11" value="Tic Tac Toe" style="ellipse;whiteSpace=wrap;html=1;" parent="1" vertex="1">
          <mxGeometry x="820" y="555" width="140" height="70" as="geometry" />
        </mxCell>
        <mxCell id="3jMCsiWTbbFfI4Y1M0tF-12" style="edgeStyle=orthogonalEdgeStyle;rounded=0;orthogonalLoop=1;jettySize=auto;html=1;entryX=1;entryY=0.5;entryDx=0;entryDy=0;endArrow=block;endFill=0;exitX=0;exitY=0.5;exitDx=0;exitDy=0;" parent="1" source="3jMCsiWTbbFfI4Y1M0tF-13" edge="1">
          <mxGeometry relative="1" as="geometry">
            <Array as="points">
              <mxPoint x="790" y="665" />
              <mxPoint x="790" y="590" />
            </Array>
            <mxPoint x="740" y="590" as="targetPoint" />
          </mxGeometry>
        </mxCell>
        <mxCell id="OBEn0SzSBOZjI5cOXPXD-46" style="edgeStyle=orthogonalEdgeStyle;rounded=0;orthogonalLoop=1;jettySize=auto;html=1;endArrow=none;startFill=0;endFill=0;dashed=1;startArrow=none;" parent="1" source="3jMCsiWTbbFfI4Y1M0tF-13" edge="1">
          <mxGeometry relative="1" as="geometry">
            <mxPoint x="1000" y="590" as="targetPoint" />
          </mxGeometry>
        </mxCell>
        <mxCell id="3jMCsiWTbbFfI4Y1M0tF-13" value="Connect Four" style="ellipse;whiteSpace=wrap;html=1;" parent="1" vertex="1">
          <mxGeometry x="820" y="635" width="135" height="60" as="geometry" />
        </mxCell>
        <mxCell id="3jMCsiWTbbFfI4Y1M0tF-14" style="edgeStyle=orthogonalEdgeStyle;rounded=0;orthogonalLoop=1;jettySize=auto;html=1;exitX=0;exitY=0.5;exitDx=0;exitDy=0;entryX=1;entryY=0.5;entryDx=0;entryDy=0;endArrow=block;endFill=0;" parent="1" source="3jMCsiWTbbFfI4Y1M0tF-9" target="3jMCsiWTbbFfI4Y1M0tF-6" edge="1">
          <mxGeometry relative="1" as="geometry">
            <mxPoint x="965" y="535" as="sourcePoint" />
            <mxPoint x="740" y="590" as="targetPoint" />
            <Array as="points">
              <mxPoint x="790" y="510" />
              <mxPoint x="790" y="590" />
            </Array>
          </mxGeometry>
        </mxCell>
        <mxCell id="OBEn0SzSBOZjI5cOXPXD-3" style="rounded=0;orthogonalLoop=1;jettySize=auto;html=1;exitX=0.5;exitY=1;exitDx=0;exitDy=0;entryX=0.5;entryY=0;entryDx=0;entryDy=0;endArrow=none;startFill=0;startArrow=open;dashed=1;" parent="1" source="3jMCsiWTbbFfI4Y1M0tF-21" target="OBEn0SzSBOZjI5cOXPXD-2" edge="1">
          <mxGeometry relative="1" as="geometry" />
        </mxCell>
        <mxCell id="3jMCsiWTbbFfI4Y1M0tF-21" value="View Own Profile" style="ellipse;whiteSpace=wrap;html=1;" parent="1" vertex="1">
          <mxGeometry x="590" y="745" width="150" height="70" as="geometry" />
        </mxCell>
        <mxCell id="3jMCsiWTbbFfI4Y1M0tF-23" style="rounded=0;orthogonalLoop=1;jettySize=auto;html=1;entryX=1;entryY=0.5;entryDx=0;entryDy=0;dashed=1;endArrow=open;endFill=0;exitX=0;exitY=0.5;exitDx=0;exitDy=0;" parent="1" source="3jMCsiWTbbFfI4Y1M0tF-25" target="3jMCsiWTbbFfI4Y1M0tF-21" edge="1">
          <mxGeometry relative="1" as="geometry">
            <mxPoint x="905" y="735" as="sourcePoint" />
            <mxPoint x="820" y="800" as="targetPoint" />
          </mxGeometry>
        </mxCell>
        <mxCell id="3jMCsiWTbbFfI4Y1M0tF-24" value="&amp;lt;&amp;lt;extend&amp;gt;&amp;gt;" style="edgeLabel;html=1;align=center;verticalAlign=middle;resizable=0;points=[];" parent="3jMCsiWTbbFfI4Y1M0tF-23" connectable="0" vertex="1">
          <mxGeometry x="-0.2421" relative="1" as="geometry">
            <mxPoint x="-39" y="11" as="offset" />
          </mxGeometry>
        </mxCell>
        <mxCell id="3jMCsiWTbbFfI4Y1M0tF-25" value="Edit Information" style="ellipse;whiteSpace=wrap;html=1;" parent="1" vertex="1">
          <mxGeometry x="825" y="805" width="135" height="60" as="geometry" />
        </mxCell>
        <mxCell id="OBEn0SzSBOZjI5cOXPXD-2" value="View Match History" style="ellipse;whiteSpace=wrap;html=1;" parent="1" vertex="1">
          <mxGeometry x="640" y="940" width="135" height="60" as="geometry" />
        </mxCell>
        <mxCell id="OBEn0SzSBOZjI5cOXPXD-4" value="&amp;lt;&amp;lt;extend&amp;gt;&amp;gt;" style="edgeLabel;html=1;align=center;verticalAlign=middle;resizable=0;points=[];" parent="1" connectable="0" vertex="1">
          <mxGeometry x="649.9965796527041" y="879.9960221282197" as="geometry" />
        </mxCell>
        <mxCell id="OBEn0SzSBOZjI5cOXPXD-5" value="View Leaderboard" style="ellipse;whiteSpace=wrap;html=1;" parent="1" vertex="1">
          <mxGeometry x="590" y="1040" width="150" height="70" as="geometry" />
        </mxCell>
        <mxCell id="OBEn0SzSBOZjI5cOXPXD-9" value="Select Between Joining Ongoing Or New Games" style="ellipse;whiteSpace=wrap;html=1;" parent="1" vertex="1">
          <mxGeometry x="770" y="710" width="150" height="70" as="geometry" />
        </mxCell>
        <mxCell id="OBEn0SzSBOZjI5cOXPXD-11" value="&amp;lt;&amp;lt;include&amp;gt;&amp;gt;" style="edgeLabel;html=1;align=center;verticalAlign=middle;resizable=0;points=[];" parent="1" connectable="0" vertex="1">
          <mxGeometry x="1040.0036849087364" y="599.9976784703588" as="geometry" />
        </mxCell>
        <mxCell id="OBEn0SzSBOZjI5cOXPXD-16" style="rounded=0;orthogonalLoop=1;jettySize=auto;html=1;entryX=1;entryY=0.5;entryDx=0;entryDy=0;endArrow=none;startFill=0;" parent="1" source="OBEn0SzSBOZjI5cOXPXD-12" target="OBEn0SzSBOZjI5cOXPXD-14" edge="1">
          <mxGeometry relative="1" as="geometry" />
        </mxCell>
        <mxCell id="OBEn0SzSBOZjI5cOXPXD-18" style="rounded=0;orthogonalLoop=1;jettySize=auto;html=1;entryX=1;entryY=0.5;entryDx=0;entryDy=0;endArrow=none;startFill=0;" parent="1" source="OBEn0SzSBOZjI5cOXPXD-12" target="OBEn0SzSBOZjI5cOXPXD-17" edge="1">
          <mxGeometry relative="1" as="geometry" />
        </mxCell>
        <mxCell id="f342jO393CyCjephrsmW-13" style="rounded=0;orthogonalLoop=1;jettySize=auto;html=1;entryX=0.5;entryY=1;entryDx=0;entryDy=0;endArrow=none;startFill=0;" edge="1" parent="1" source="OBEn0SzSBOZjI5cOXPXD-12" target="f342jO393CyCjephrsmW-10">
          <mxGeometry relative="1" as="geometry" />
        </mxCell>
        <mxCell id="OBEn0SzSBOZjI5cOXPXD-12" value="Server" style="shape=umlActor;verticalLabelPosition=bottom;verticalAlign=top;html=1;outlineConnect=0;" parent="1" vertex="1">
          <mxGeometry x="1710" y="545" width="30" height="60" as="geometry" />
        </mxCell>
        <mxCell id="OBEn0SzSBOZjI5cOXPXD-14" value="Update The Win/Loss Ratio For Players Based On The Result Of A Game" style="ellipse;whiteSpace=wrap;html=1;" parent="1" vertex="1">
          <mxGeometry x="1280" y="555" width="150" height="70" as="geometry" />
        </mxCell>
        <mxCell id="OBEn0SzSBOZjI5cOXPXD-17" value="Set Players&#39; Hidden Matchmaking Ratings (MMR) for Skill-Based Matchmaking" style="ellipse;whiteSpace=wrap;html=1;" parent="1" vertex="1">
          <mxGeometry x="1280" y="420" width="150" height="70" as="geometry" />
        </mxCell>
        <mxCell id="OBEn0SzSBOZjI5cOXPXD-19" value="Change Username" style="ellipse;whiteSpace=wrap;html=1;" parent="1" vertex="1">
          <mxGeometry x="1037.5" y="720" width="140" height="70" as="geometry" />
        </mxCell>
        <mxCell id="OBEn0SzSBOZjI5cOXPXD-20" style="edgeStyle=orthogonalEdgeStyle;rounded=0;orthogonalLoop=1;jettySize=auto;html=1;endArrow=block;endFill=0;" parent="1" source="OBEn0SzSBOZjI5cOXPXD-21" edge="1">
          <mxGeometry relative="1" as="geometry">
            <mxPoint x="960" y="835" as="targetPoint" />
          </mxGeometry>
        </mxCell>
        <mxCell id="OBEn0SzSBOZjI5cOXPXD-21" value="Change Password" style="ellipse;whiteSpace=wrap;html=1;" parent="1" vertex="1">
          <mxGeometry x="1040" y="800" width="140" height="70" as="geometry" />
        </mxCell>
        <mxCell id="OBEn0SzSBOZjI5cOXPXD-22" style="edgeStyle=orthogonalEdgeStyle;rounded=0;orthogonalLoop=1;jettySize=auto;html=1;entryX=1;entryY=0.5;entryDx=0;entryDy=0;endArrow=block;endFill=0;exitX=0;exitY=0.5;exitDx=0;exitDy=0;" parent="1" source="OBEn0SzSBOZjI5cOXPXD-23" edge="1">
          <mxGeometry relative="1" as="geometry">
            <Array as="points">
              <mxPoint x="1010" y="910" />
              <mxPoint x="1010" y="835" />
            </Array>
            <mxPoint x="960" y="835" as="targetPoint" />
          </mxGeometry>
        </mxCell>
        <mxCell id="OBEn0SzSBOZjI5cOXPXD-23" value="Change E-mail Address" style="ellipse;whiteSpace=wrap;html=1;" parent="1" vertex="1">
          <mxGeometry x="1040" y="880" width="135" height="60" as="geometry" />
        </mxCell>
        <mxCell id="OBEn0SzSBOZjI5cOXPXD-24" style="edgeStyle=orthogonalEdgeStyle;rounded=0;orthogonalLoop=1;jettySize=auto;html=1;exitX=0;exitY=0.5;exitDx=0;exitDy=0;entryX=1;entryY=0.5;entryDx=0;entryDy=0;endArrow=block;endFill=0;" parent="1" source="OBEn0SzSBOZjI5cOXPXD-19" target="3jMCsiWTbbFfI4Y1M0tF-25" edge="1">
          <mxGeometry relative="1" as="geometry">
            <mxPoint x="1185" y="780" as="sourcePoint" />
            <mxPoint x="960" y="835" as="targetPoint" />
            <Array as="points">
              <mxPoint x="1010" y="755" />
              <mxPoint x="1010" y="835" />
            </Array>
          </mxGeometry>
        </mxCell>
        <mxCell id="OBEn0SzSBOZjI5cOXPXD-26" value="&amp;lt;&amp;lt;extend&amp;gt;&amp;gt;" style="edgeLabel;html=1;align=center;verticalAlign=middle;resizable=0;points=[];" parent="1" connectable="0" vertex="1">
          <mxGeometry x="790.0042576912276" y="439.99615588317823" as="geometry" />
        </mxCell>
        <mxCell id="OBEn0SzSBOZjI5cOXPXD-31" style="rounded=0;orthogonalLoop=1;jettySize=auto;html=1;entryX=1;entryY=0.5;entryDx=0;entryDy=0;dashed=1;endArrow=open;endFill=0;" parent="1" source="OBEn0SzSBOZjI5cOXPXD-28" target="GAJAMWU1O866HQGjR93X-7" edge="1">
          <mxGeometry relative="1" as="geometry" />
        </mxCell>
        <mxCell id="OBEn0SzSBOZjI5cOXPXD-28" value="Forgot Username" style="ellipse;whiteSpace=wrap;html=1;" parent="1" vertex="1">
          <mxGeometry x="817.5" y="380" width="150" height="70" as="geometry" />
        </mxCell>
        <mxCell id="OBEn0SzSBOZjI5cOXPXD-32" value="Search For Other Users" style="ellipse;whiteSpace=wrap;html=1;" parent="1" vertex="1">
          <mxGeometry x="575" y="260" width="150" height="70" as="geometry" />
        </mxCell>
        <mxCell id="OBEn0SzSBOZjI5cOXPXD-35" style="rounded=0;orthogonalLoop=1;jettySize=auto;html=1;entryX=0.5;entryY=0;entryDx=0;entryDy=0;endArrow=open;endFill=0;dashed=1;" parent="1" source="OBEn0SzSBOZjI5cOXPXD-34" target="OBEn0SzSBOZjI5cOXPXD-32" edge="1">
          <mxGeometry relative="1" as="geometry" />
        </mxCell>
        <mxCell id="OBEn0SzSBOZjI5cOXPXD-34" value="View Other Users&#39; Profiles" style="ellipse;whiteSpace=wrap;html=1;" parent="1" vertex="1">
          <mxGeometry x="725" y="140" width="150" height="70" as="geometry" />
        </mxCell>
        <mxCell id="OBEn0SzSBOZjI5cOXPXD-36" value="&amp;lt;&amp;lt;extend&amp;gt;&amp;gt;" style="edgeLabel;html=1;align=center;verticalAlign=middle;resizable=0;points=[];" parent="1" connectable="0" vertex="1">
          <mxGeometry x="679.9975112493916" y="219.99972855307925" as="geometry" />
        </mxCell>
        <mxCell id="OBEn0SzSBOZjI5cOXPXD-38" style="edgeStyle=orthogonalEdgeStyle;rounded=0;orthogonalLoop=1;jettySize=auto;html=1;entryX=1;entryY=0.5;entryDx=0;entryDy=0;dashed=1;endArrow=open;endFill=0;" parent="1" source="OBEn0SzSBOZjI5cOXPXD-37" target="OBEn0SzSBOZjI5cOXPXD-34" edge="1">
          <mxGeometry relative="1" as="geometry" />
        </mxCell>
        <mxCell id="OBEn0SzSBOZjI5cOXPXD-37" value="Challenge Other Users To Games" style="ellipse;whiteSpace=wrap;html=1;" parent="1" vertex="1">
          <mxGeometry x="967.5" y="140" width="150" height="70" as="geometry" />
        </mxCell>
        <mxCell id="OBEn0SzSBOZjI5cOXPXD-39" value="&amp;lt;&amp;lt;extend&amp;gt;&amp;gt;" style="edgeLabel;html=1;align=center;verticalAlign=middle;resizable=0;points=[];" parent="1" connectable="0" vertex="1">
          <mxGeometry x="929.9975112493916" y="159.99972855307925" as="geometry" />
        </mxCell>
        <mxCell id="OBEn0SzSBOZjI5cOXPXD-48" style="edgeStyle=orthogonalEdgeStyle;rounded=0;orthogonalLoop=1;jettySize=auto;html=1;entryX=1;entryY=0.5;entryDx=0;entryDy=0;endArrow=none;endFill=0;startFill=0;startArrow=open;dashed=1;" parent="1" source="OBEn0SzSBOZjI5cOXPXD-41" target="3jMCsiWTbbFfI4Y1M0tF-11" edge="1">
          <mxGeometry relative="1" as="geometry" />
        </mxCell>
        <mxCell id="OBEn0SzSBOZjI5cOXPXD-41" value="Chat In Game" style="ellipse;whiteSpace=wrap;html=1;" parent="1" vertex="1">
          <mxGeometry x="1080" y="555" width="140" height="70" as="geometry" />
        </mxCell>
        <mxCell id="OBEn0SzSBOZjI5cOXPXD-49" value="&amp;lt;&amp;lt;include&amp;gt;&amp;gt;" style="edgeLabel;html=1;align=center;verticalAlign=middle;resizable=0;points=[];" parent="1" connectable="0" vertex="1">
          <mxGeometry x="710.0036849087364" y="674.9976784703588" as="geometry" />
        </mxCell>
        <mxCell id="OBEn0SzSBOZjI5cOXPXD-54" style="edgeStyle=orthogonalEdgeStyle;rounded=0;orthogonalLoop=1;jettySize=auto;html=1;entryX=0;entryY=0.5;entryDx=0;entryDy=0;endArrow=none;startFill=0;" parent="1" source="OBEn0SzSBOZjI5cOXPXD-50" target="OBEn0SzSBOZjI5cOXPXD-53" edge="1">
          <mxGeometry relative="1" as="geometry" />
        </mxCell>
        <mxCell id="OBEn0SzSBOZjI5cOXPXD-50" value="New (Unregistered) Player" style="shape=umlActor;verticalLabelPosition=bottom;verticalAlign=top;html=1;outlineConnect=0;" parent="1" vertex="1">
          <mxGeometry x="430" y="-10" width="30" height="60" as="geometry" />
        </mxCell>
        <mxCell id="f342jO393CyCjephrsmW-8" style="edgeStyle=orthogonalEdgeStyle;rounded=0;orthogonalLoop=1;jettySize=auto;html=1;entryX=0;entryY=0.5;entryDx=0;entryDy=0;endArrow=open;endFill=0;dashed=1;" edge="1" parent="1" source="OBEn0SzSBOZjI5cOXPXD-53" target="f342jO393CyCjephrsmW-7">
          <mxGeometry relative="1" as="geometry" />
        </mxCell>
        <mxCell id="OBEn0SzSBOZjI5cOXPXD-53" value="Create Account" style="ellipse;whiteSpace=wrap;html=1;" parent="1" vertex="1">
          <mxGeometry x="580" y="-15" width="150" height="70" as="geometry" />
        </mxCell>
        <mxCell id="f342jO393CyCjephrsmW-5" style="rounded=0;orthogonalLoop=1;jettySize=auto;html=1;entryX=0;entryY=0.5;entryDx=0;entryDy=0;dashed=1;endArrow=open;endFill=0;" edge="1" parent="1" source="f342jO393CyCjephrsmW-1" target="f342jO393CyCjephrsmW-4">
          <mxGeometry relative="1" as="geometry" />
        </mxCell>
        <mxCell id="f342jO393CyCjephrsmW-1" value="Create Username" style="ellipse;whiteSpace=wrap;html=1;" vertex="1" parent="1">
          <mxGeometry x="1047.5" y="-15" width="140" height="70" as="geometry" />
        </mxCell>
        <mxCell id="f342jO393CyCjephrsmW-2" style="edgeStyle=orthogonalEdgeStyle;rounded=0;orthogonalLoop=1;jettySize=auto;html=1;entryX=1;entryY=0.5;entryDx=0;entryDy=0;endArrow=none;endFill=0;startFill=0;startArrow=open;dashed=1;" edge="1" parent="1">
          <mxGeometry relative="1" as="geometry">
            <mxPoint x="1047.5" y="19.5" as="sourcePoint" />
            <mxPoint x="947.5" y="19" as="targetPoint" />
          </mxGeometry>
        </mxCell>
        <mxCell id="f342jO393CyCjephrsmW-3" value="&amp;lt;&amp;lt;include&amp;gt;&amp;gt;" style="text;html=1;align=center;verticalAlign=middle;resizable=0;points=[];autosize=1;strokeColor=none;fillColor=none;" vertex="1" parent="1">
          <mxGeometry x="957.5" y="-10" width="90" height="30" as="geometry" />
        </mxCell>
        <mxCell id="f342jO393CyCjephrsmW-11" style="rounded=0;orthogonalLoop=1;jettySize=auto;html=1;entryX=0;entryY=0.5;entryDx=0;entryDy=0;dashed=1;endArrow=open;endFill=0;" edge="1" parent="1" source="f342jO393CyCjephrsmW-4" target="f342jO393CyCjephrsmW-10">
          <mxGeometry relative="1" as="geometry" />
        </mxCell>
        <mxCell id="f342jO393CyCjephrsmW-4" value="Create Password" style="ellipse;whiteSpace=wrap;html=1;" vertex="1" parent="1">
          <mxGeometry x="1290" y="-15" width="140" height="70" as="geometry" />
        </mxCell>
        <mxCell id="f342jO393CyCjephrsmW-6" value="&amp;lt;&amp;lt;include&amp;gt;&amp;gt;" style="text;html=1;align=center;verticalAlign=middle;resizable=0;points=[];autosize=1;strokeColor=none;fillColor=none;" vertex="1" parent="1">
          <mxGeometry x="1200" y="-15" width="90" height="30" as="geometry" />
        </mxCell>
        <mxCell id="f342jO393CyCjephrsmW-7" value="Add E-mail Address" style="ellipse;whiteSpace=wrap;html=1;" vertex="1" parent="1">
          <mxGeometry x="807.5" y="-15" width="140" height="70" as="geometry" />
        </mxCell>
        <mxCell id="f342jO393CyCjephrsmW-9" value="&amp;lt;&amp;lt;include&amp;gt;&amp;gt;" style="text;html=1;align=center;verticalAlign=middle;resizable=0;points=[];autosize=1;strokeColor=none;fillColor=none;" vertex="1" parent="1">
          <mxGeometry x="725" y="-15" width="90" height="30" as="geometry" />
        </mxCell>
        <mxCell id="f342jO393CyCjephrsmW-10" value="Add new Profile to Profile Database" style="ellipse;whiteSpace=wrap;html=1;" vertex="1" parent="1">
          <mxGeometry x="1510" y="-22.5" width="150" height="85" as="geometry" />
        </mxCell>
        <mxCell id="f342jO393CyCjephrsmW-12" value="&amp;lt;&amp;lt;include&amp;gt;&amp;gt;" style="text;html=1;align=center;verticalAlign=middle;resizable=0;points=[];autosize=1;strokeColor=none;fillColor=none;" vertex="1" parent="1">
          <mxGeometry x="1420" y="-15" width="90" height="30" as="geometry" />
        </mxCell>
      </root>
    </mxGraphModel>
  </diagram>
</mxfile>
